<?xml version="1.0" standalone="no"?>
<!DOCTYPE svg PUBLIC "-//W3C//DTD SVG 20010904//EN"
 "http://www.w3.org/TR/2001/REC-SVG-20010904/DTD/svg10.dtd">
<svg version="1.0" xmlns="http://www.w3.org/2000/svg"
 width="500.000000pt" height="500.000000pt" viewBox="0 0 500.000000 500.000000"
 preserveAspectRatio="xMidYMid meet">

<g transform="translate(0.000000,500.000000) scale(0.100000,-0.100000)"
fill="#000000" stroke="none">
<path d="M0 2500 l0 -2500 2500 0 2500 0 0 2500 0 2500 -2500 0 -2500 0 0
-2500z m2290 2370 c72 -37 111 -106 111 -195 0 -111 -96 -214 -201 -215 -9 0
-67 -92 -147 -233 -73 -127 -406 -706 -741 -1286 l-608 -1053 9 -47 c12 -57
-2 -113 -42 -168 -41 -56 -90 -78 -177 -78 -60 0 -77 4 -112 28 -171 112 -109
379 92 399 l39 4 735 1274 c453 786 734 1283 732 1295 -2 11 -4 52 -4 91 -1
62 2 76 28 112 64 94 184 123 286 72z m654 4 c8 -3 97 -140 196 -305 139 -230
186 -299 201 -299 33 0 95 -37 127 -75 57 -70 66 -152 27 -232 -78 -156 -293
-166 -381 -17 -32 54 -40 118 -22 170 l15 41 -106 182 c-58 99 -109 181 -112
181 -8 0 -1539 -2676 -1539 -2690 0 -7 219 -10 690 -10 l691 0 34 35 c101 100
281 72 345 -55 76 -151 -30 -320 -201 -320 -46 0 -133 44 -160 81 l-20 29
-809 0 c-723 0 -814 2 -850 16 -22 9 -45 25 -50 35 -17 31 -11 88 14 137 13
26 406 711 874 1522 910 1581 910 1580 984 1580 20 0 43 -3 52 -6z m568 -1414
c178 -10 225 -20 255 -52 34 -36 450 -718 728 -1193 87 -148 184 -313 215
-365 65 -106 79 -154 60 -201 -25 -60 -19 -59 -581 -59 l-512 0 -36 38 c-20
21 -128 201 -241 400 l-205 361 -597 1 c-329 0 -598 2 -598 5 0 7 180 312 417
707 l215 358 221 3 c122 1 285 3 362 4 77 1 211 -2 297 -7z m-2716 -2390 c89
-205 163 -362 175 -372 12 -10 30 -18 40 -18 10 0 19 -4 19 -10 0 -6 -55 -10
-145 -10 -144 0 -175 7 -112 25 46 14 47 52 3 148 l-35 77 -149 0 -149 0 -37
-87 c-20 -49 -36 -92 -36 -97 0 -19 34 -46 57 -46 12 0 23 -4 23 -10 0 -6 -42
-10 -105 -10 -99 0 -134 10 -81 24 13 3 33 21 45 38 11 18 87 185 168 371 81
185 152 336 156 334 5 -1 78 -162 163 -357z m707 318 l69 -23 18 23 c10 12 21
22 24 22 3 0 6 -54 6 -120 0 -73 -4 -120 -10 -120 -5 0 -10 10 -10 23 0 41
-57 124 -103 152 -96 56 -217 11 -217 -80 0 -55 23 -78 155 -159 159 -98 211
-150 224 -223 16 -87 -29 -172 -112 -212 -53 -25 -154 -28 -217 -6 -54 19 -94
19 -110 0 -7 -8 -16 -15 -21 -15 -5 0 -9 54 -9 120 0 66 4 120 8 120 5 0 14
-19 21 -42 27 -89 89 -148 172 -163 86 -16 169 40 169 114 0 71 -38 107 -251
241 -88 56 -119 102 -119 180 0 76 34 130 102 164 65 32 119 33 211 4z m2102
2 c61 -21 89 -19 99 5 3 8 10 15 16 15 6 0 10 -44 10 -120 0 -66 -4 -120 -8
-120 -4 0 -13 20 -20 45 -13 49 -69 118 -115 142 -21 10 -48 14 -85 11 -47 -4
-60 -10 -84 -37 -32 -36 -38 -92 -13 -128 9 -12 68 -55 132 -95 187 -115 233
-168 233 -266 0 -66 -46 -136 -110 -169 -54 -27 -151 -31 -226 -8 -62 19 -88
19 -104 0 -7 -8 -16 -15 -21 -15 -5 0 -9 54 -9 120 0 73 4 120 10 120 6 0 10
-8 10 -18 0 -32 51 -122 84 -147 18 -13 55 -30 84 -36 130 -31 226 81 157 183
-23 34 -55 57 -228 168 -76 48 -100 76 -116 137 -17 61 2 126 50 174 61 61
150 75 254 39z m-1485 -12 c-67 -19 -70 -26 -70 -175 l0 -133 180 0 180 0 0
129 c0 147 -7 164 -75 180 -30 7 5 9 130 9 163 1 168 0 123 -14 -68 -21 -70
-32 -66 -372 l3 -284 24 -19 c13 -10 36 -19 52 -19 16 0 29 -4 29 -10 0 -6
-62 -10 -165 -10 -103 0 -165 4 -165 10 0 6 14 10 30 10 19 0 40 9 55 25 24
23 25 28 25 175 l0 150 -180 0 -180 0 0 -151 c0 -84 5 -159 10 -170 7 -11 26
-21 50 -25 85 -14 33 -24 -120 -24 -100 0 -160 4 -160 10 0 6 11 10 24 10 13
0 35 9 50 21 l26 20 0 304 c0 338 1 334 -70 354 -26 7 7 9 130 9 126 0 157 -2
130 -10z m966 1 c-79 -19 -76 -4 -76 -351 0 -295 1 -309 20 -328 12 -12 33
-20 55 -20 19 0 35 -4 35 -10 0 -6 -63 -10 -170 -10 -107 0 -170 4 -170 10 0
6 16 10 35 10 22 0 43 8 55 20 19 19 20 33 20 324 0 342 1 338 -75 355 -29 7
7 9 135 9 129 0 165 -2 136 -9z m1159 4 c-84 -18 -95 -41 -95 -199 l0 -114
185 0 185 0 0 119 c0 66 -4 131 -9 144 -9 22 -39 40 -86 50 -11 3 57 5 150 5
94 0 161 -2 150 -5 -47 -10 -77 -28 -86 -50 -5 -13 -9 -155 -9 -314 l0 -290
25 -24 c15 -16 36 -25 55 -25 16 0 30 -4 30 -10 0 -6 -62 -10 -165 -10 -103 0
-165 4 -165 10 0 6 13 10 29 10 16 0 39 9 52 19 23 18 24 25 27 175 l3 156
-186 0 -186 0 3 -156 c3 -150 4 -157 27 -175 13 -10 36 -19 52 -19 16 0 29 -4
29 -10 0 -6 -62 -10 -165 -10 -103 0 -165 4 -165 10 0 6 14 10 30 10 19 0 40
9 55 25 l25 24 0 299 c0 338 1 334 -75 351 -29 7 5 9 130 9 94 0 161 -2 150
-5z m-2506 -920 c12 -10 24 -35 28 -55 l6 -38 -42 0 c-34 0 -41 3 -41 20 0 11
-7 20 -15 20 -28 0 -15 -36 26 -75 54 -53 69 -84 69 -143 0 -72 -26 -102 -89
-102 -56 0 -87 23 -96 74 -11 57 -4 71 38 74 l37 3 0 -41 c0 -34 3 -41 18 -38
32 7 17 55 -37 113 -27 30 -52 68 -56 85 -8 36 10 96 33 110 28 16 98 12 121
-7z m590 -9 c19 -24 21 -40 21 -171 0 -139 -1 -145 -25 -168 -35 -36 -102 -35
-136 1 -22 23 -24 35 -27 141 -6 189 9 223 97 223 42 0 53 -4 70 -26z m505 4
c3 -13 11 -50 18 -83 l13 -60 3 83 3 82 34 0 35 0 0 -195 0 -195 -38 0 -39 0
-15 78 -16 77 -1 -77 -1 -78 -40 0 -40 0 0 195 0 195 40 0 c33 0 40 -4 44 -22z
m576 -173 l0 -195 -35 0 -35 0 0 195 0 195 35 0 35 0 0 -195z"/>
<path d="M2142 4753 c-17 -6 -42 -57 -42 -83 0 -30 53 -80 83 -80 41 0 87 46
87 86 0 62 -66 102 -128 77z"/>
<path d="M465 1878 c-31 -18 -44 -40 -45 -76 0 -84 117 -115 155 -41 22 42 18
67 -14 100 -31 30 -63 36 -96 17z"/>
<path d="M3241 4116 c-40 -42 -26 -117 26 -137 58 -22 117 16 117 76 0 75 -92
115 -143 61z"/>
<path d="M2862 1760 c-29 -27 -37 -63 -20 -96 39 -83 158 -59 158 31 0 72 -87
113 -138 65z"/>
<path d="M569 1194 c-12 -27 -41 -93 -65 -146 l-43 -98 130 0 c71 0 129 3 129
6 0 10 -113 268 -121 278 -5 5 -18 -12 -30 -40z"/>
<path d="M2240 285 c0 -100 3 -125 14 -125 21 0 26 23 26 125 0 102 -5 125
-26 125 -11 0 -14 -25 -14 -125z"/>
</g>
</svg>
