<svg width="49" height="49" viewBox="0 0 49 49" fill="none" xmlns="http://www.w3.org/2000/svg">
<rect width="41" height="4" fill="url(#paint0_linear_1126_179)"/>
<path d="M17.384 34.132H7.95195L5.71995 40H0.535953L10.4 14.8H12.632C14.192 14.8 15.248 15.52 15.8 16.96L24.764 40H19.58L17.384 34.132ZM9.28395 29.956H16.052L12.704 20.884H12.668L9.28395 29.956ZM34.775 40.288C32.135 40.288 30.071 39.556 28.583 38.092C27.095 36.604 26.351 34.54 26.351 31.9H31.247C31.247 33.148 31.559 34.132 32.183 34.852C32.831 35.548 33.719 35.896 34.847 35.896H38.843C39.899 35.896 40.751 35.68 41.399 35.248C42.071 34.792 42.407 34.192 42.407 33.448V32.224C42.407 31.048 41.543 30.316 39.815 30.028L33.191 28.912C31.031 28.552 29.387 27.868 28.259 26.86C27.155 25.828 26.603 24.52 26.603 22.936V20.92C26.603 19.648 26.939 18.532 27.611 17.572C28.307 16.588 29.279 15.832 30.527 15.304C31.799 14.776 33.263 14.512 34.919 14.512H38.987C40.547 14.512 41.927 14.836 43.127 15.484C44.327 16.132 45.251 17.044 45.899 18.22C46.571 19.372 46.907 20.716 46.907 22.252H42.011C42.011 21.244 41.735 20.44 41.183 19.84C40.631 19.216 39.899 18.904 38.987 18.904H34.919C33.911 18.904 33.095 19.12 32.471 19.552C31.871 19.984 31.571 20.56 31.571 21.28V22.252C31.571 23.452 32.399 24.196 34.055 24.484L40.643 25.636C42.827 26.02 44.495 26.704 45.647 27.688C46.799 28.648 47.375 29.896 47.375 31.432V33.808C47.375 35.08 47.015 36.208 46.295 37.192C45.599 38.176 44.615 38.944 43.343 39.496C42.071 40.024 40.595 40.288 38.915 40.288H34.775Z" fill="url(#paint1_linear_1126_179)"/>
<defs>
<linearGradient id="paint0_linear_1126_179" x1="41" y1="2" x2="-2.16671e-07" y2="2" gradientUnits="userSpaceOnUse">
<stop stop-color="#FF8E57"/>
<stop offset="0.519856" stop-color="#FD696B"/>
<stop offset="1" stop-color="#BB6BDA"/>
</linearGradient>
<linearGradient id="paint1_linear_1126_179" x1="8.90067e-08" y1="24.4546" x2="49" y2="24.4546" gradientUnits="userSpaceOnUse">
<stop stop-color="#B16CEA"/>
<stop offset="0.502939" stop-color="#FC5F70"/>
<stop offset="1" stop-color="#FF9453"/>
</linearGradient>
</defs>
</svg>
