<?xml version="1.0" standalone="no"?>
<!DOCTYPE svg PUBLIC "-//W3C//DTD SVG 20010904//EN"
 "http://www.w3.org/TR/2001/REC-SVG-20010904/DTD/svg10.dtd">
<svg version="1.0" xmlns="http://www.w3.org/2000/svg"
 width="500.000000pt" height="500.000000pt" viewBox="0 0 500.000000 500.000000"
 preserveAspectRatio="xMidYMid meet">

<g transform="translate(0.000000,500.000000) scale(0.100000,-0.100000)"
fill="#000000" stroke="none">
<path d="M0 2500 l0 -2500 2500 0 2500 0 0 2500 0 2500 -2500 0 -2500 0 0
-2500z m2960 1220 c264 -528 480 -962 480 -965 0 -3 -119 -5 -265 -5 l-265 0
-212 425 c-117 234 -215 425 -218 425 -5 0 -670 -1325 -670 -1335 0 -3 423 -5
940 -5 l940 0 480 -960 c264 -528 480 -962 480 -965 0 -3 -976 -5 -2170 -5
-1194 0 -2170 3 -2170 6 0 4 107 220 237 480 l237 474 268 0 268 0 -120 -240
-120 -240 1395 0 c921 0 1395 3 1395 10 0 5 -107 224 -237 485 l-238 475
-1183 0 c-651 0 -1182 3 -1180 8 13 30 1444 2891 1445 2891 2 1 219 -431 483
-959z m-342 -935 c72 -146 132 -267 132 -270 0 -3 -121 -5 -270 -5 -167 0
-270 4 -270 10 0 15 260 530 268 530 4 0 67 -119 140 -265z m742 -1485 c66
-132 119 -240 118 -240 -670 -2 -1992 1 -1995 4 -3 3 35 83 85 178 49 95 104
201 121 236 l31 62 760 0 760 0 120 -240z"/>
</g>
</svg>
